<svg width="150" height="85" viewBox="0 0 150 85" fill="none" xmlns="http://www.w3.org/2000/svg">
<path d="M35.469 13.0829C35.8725 11.562 36.0743 10.2894 36.0743 9.26512C36.0743 8.24084 35.7949 7.40279 35.2362 6.75097C34.6775 6.06811 33.9481 5.72668 33.048 5.72668C32.1789 5.72668 31.4495 6.16123 30.8597 7.03032C30.27 7.89941 29.9751 8.89265 29.9751 10.0101C29.9751 12.1828 31.2167 14.0451 33.6998 15.5971C36.1829 17.2111 37.8745 18.375 38.7747 19.0889C39.6748 19.8028 40.3111 20.4547 40.6836 21.0444C41.6147 22.5653 42.0803 24.1328 42.0803 25.7468C42.0803 28.5403 41.1336 30.7751 39.2402 32.4512C37.3779 34.0963 35.2673 34.9188 32.9083 34.9188C30.1148 34.9188 27.7714 33.7393 25.878 31.3804C24.5123 29.6732 23.2552 27.5471 22.1068 25.0019L26.6229 22.8136C27.3368 24.676 28.2214 26.2589 29.2767 27.5626C30.3631 28.8352 31.5115 29.4715 32.7221 29.4715C33.498 29.4715 34.1964 29.2232 34.8172 28.7265C35.438 28.2299 35.7484 27.485 35.7484 26.4917C35.7484 25.4674 35.3604 24.5208 34.5844 23.6517C33.8084 22.7826 32.7686 21.898 31.465 20.9978C30.1614 20.0977 29.1526 19.3683 28.4387 18.8096C27.7248 18.2199 26.9333 17.4749 26.0642 16.5748C24.4192 14.8366 23.5966 12.6173 23.5966 9.91694C23.5966 7.18551 24.5433 4.90415 26.4367 3.07286C28.3301 1.21052 30.5804 0.279352 33.1877 0.279352C35.7949 0.279352 37.9832 1.28812 39.7524 3.30565C41.5526 5.32318 42.4528 7.40279 42.4528 9.54447C42.4528 11.6551 42.0493 13.4709 41.2423 14.9918L35.469 13.0829Z" fill="#00C2FF"/>
<path d="M50.2564 33.522C49.946 28.0282 49.7908 23.2482 49.7908 19.1821C49.7908 15.0849 49.8839 10.8171 50.0702 6.3785L44.39 7.17L43.3657 1.76922C46.4076 1.24156 49.4183 0.853572 52.3981 0.60526L61.1045 0.139676L61.9891 5.30766C60.282 5.40078 58.3576 5.54045 56.2159 5.72668C56.0296 10.1963 55.9365 14.2934 55.9365 18.0181C55.9365 21.7428 55.9986 27.0815 56.1228 34.0342L50.2564 33.522Z" fill="#00C2FF"/>
<path d="M76.6725 32.9633L75.6016 26.4917L68.6644 26.7711L66.8952 35.5241L60.377 34.9654L68.711 1.21052L77.3243 1.95545L83.4234 33.522L76.6725 32.9633ZM72.5753 7.30967L69.6421 21.7893L74.8567 21.6031L72.5753 7.30967Z" fill="#00C2FF"/>
<path d="M87.1306 33.848C87.5341 26.3986 87.7359 19.7563 87.7359 13.921C87.7359 8.08564 87.7204 4.25233 87.6893 2.42104C91.1036 0.807013 94.6576 0 98.3512 0C101.083 0 103.364 0.86909 105.195 2.60727C107.058 4.34545 107.989 6.79753 107.989 9.9635C107.989 13.6261 105.397 17.149 100.214 20.5323C103.038 24.0707 105.925 27.9661 108.873 32.2184L104.404 35.5241C102.448 32.5754 98.941 27.7643 93.8816 21.091C93.7885 25.871 93.6488 30.3561 93.4626 34.5463L87.1306 33.848ZM94.0213 17.925C96.3182 16.8386 98.2736 15.5039 99.8876 13.921C101.502 12.3069 102.309 10.8481 102.309 9.54447C102.309 8.24084 101.921 7.23207 101.145 6.51818C100.4 5.80428 99.4065 5.44733 98.165 5.44733C96.9234 5.44733 95.5577 5.71116 94.0678 6.23883C94.0678 11.4844 94.0523 15.3798 94.0213 17.925Z" fill="#00C2FF"/>
<path d="M115.456 33.522C115.146 28.0282 114.991 23.2482 114.991 19.1821C114.991 15.0849 115.084 10.8171 115.27 6.3785L109.59 7.17L108.566 1.76922C111.608 1.24156 114.618 0.853572 117.598 0.60526L126.304 0.139676L127.189 5.30766C125.482 5.40078 123.557 5.54045 121.416 5.72668C121.23 10.1963 121.136 14.2934 121.136 18.0181C121.136 21.7428 121.199 27.0815 121.323 34.0342L115.456 33.522Z" fill="#00C2FF"/>
<path d="M17.8163 54.7992C18.3544 52.7714 18.6234 51.0746 18.6234 49.7088C18.6234 48.3431 18.2509 47.2257 17.506 46.3566C16.761 45.4462 15.7885 44.9909 14.5883 44.9909C13.4295 44.9909 12.457 45.5703 11.6706 46.7291C10.8843 47.8879 10.4912 49.2122 10.4912 50.7021C10.4912 53.5991 12.1466 56.0822 15.4574 58.1514C18.7682 60.3035 21.0237 61.8554 22.2239 62.8073C23.424 63.7591 24.2724 64.6282 24.7691 65.4146C26.0106 67.4424 26.6314 69.5324 26.6314 71.6844C26.6314 75.4091 25.3692 78.3888 22.8447 80.6236C20.3615 82.817 17.5473 83.9137 14.4021 83.9137C10.6774 83.9137 7.55281 82.3411 5.02831 79.1958C3.20736 76.9196 1.53125 74.0848 0 70.6912L6.02155 67.7735C6.97341 70.2566 8.15289 72.3673 9.55999 74.1054C11.0085 75.8022 12.5397 76.6506 14.1538 76.6506C15.1884 76.6506 16.1196 76.3196 16.9473 75.6574C17.775 74.9952 18.1888 74.002 18.1888 72.6777C18.1888 71.3119 17.6715 70.0497 16.6369 68.8909C15.6022 67.7321 14.2158 66.5526 12.4777 65.3525C10.7395 64.1523 9.39445 63.1797 8.44259 62.4348C7.49073 61.6485 6.43541 60.6552 5.27662 59.4551C3.0832 57.1375 1.98649 54.1785 1.98649 50.5779C1.98649 46.936 3.24874 43.8942 5.77324 41.4525C8.29774 38.9694 11.2982 37.7278 14.7745 37.7278C18.2509 37.7278 21.1686 39.0728 23.5275 41.7629C25.9279 44.4529 27.128 47.2257 27.128 50.0813C27.128 52.8955 26.59 55.3166 25.514 57.3444L17.8163 54.7992Z" fill="#00184B"/>
<path d="M32.0079 82.2997C31.6768 71.5396 31.5113 63.4281 31.5113 57.9652C31.5113 52.5024 31.8631 46.667 32.5666 40.4592L44.2373 41.3904C45.6858 46.605 47.217 53.9095 48.831 63.3039C51.1486 55.7304 53.1972 47.5361 54.9767 38.7211L66.7095 39.7764C67.0405 52.5644 67.2061 61.9175 67.2061 67.8356C67.2061 73.7123 67.0198 78.9475 66.6474 83.5413L58.1427 82.7343C58.6807 77.5197 59.136 66.4699 59.5084 49.5847L59.0118 49.5226C58.5979 51.1366 57.9358 53.9095 57.0253 57.8411C55.1216 65.9939 53.2799 72.9467 51.5004 78.6992L45.8513 78.2026C44.858 74.2296 43.6993 69.0978 42.3749 62.8073C41.092 56.4753 40.0987 51.8195 39.3952 48.8398L38.8986 48.7777C39.271 62.6004 39.7056 74.0227 40.2022 83.0447L32.0079 82.2997Z" fill="#00184B"/>
<path d="M90.8199 81.3065L89.3921 72.6777L80.1425 73.0501L77.7836 84.7208L69.0927 83.9758L80.2046 38.9694L91.689 39.9626L99.8212 82.0514L90.8199 81.3065ZM85.3571 47.1016L81.4462 66.4078L88.3989 66.1595L85.3571 47.1016Z" fill="#00184B"/>
<path d="M106.192 81.5548C105.654 73.0294 105.385 65.2283 105.385 58.1514C105.385 51.0332 105.613 44.5771 106.068 38.7831L114.324 39.5281C113.703 46.6463 113.393 53.4542 113.393 59.9517C113.393 66.4492 113.496 71.2292 113.703 74.2917C115.193 74.0848 118.856 73.6709 124.691 73.0501L125.933 80.2512C122.829 80.6236 118.442 81.2444 112.772 82.1135L106.192 81.5548Z" fill="#00184B"/>
<path d="M130.259 81.5548C129.721 73.0294 129.452 65.2283 129.452 58.1514C129.452 51.0332 129.68 44.5771 130.135 38.7831L138.391 39.5281C137.771 46.6463 137.46 53.4542 137.46 59.9517C137.46 66.4492 137.564 71.2292 137.771 74.2917C139.261 74.0848 142.923 73.6709 148.758 73.0501L150 80.2512C146.896 80.6236 142.509 81.2444 136.839 82.1135L130.259 81.5548Z" fill="#00184B"/>
</svg>
